<mxfile host="65bd71144e">
    <diagram id="OAejah4RlwYKssRU32tp" name="Page-1">
        <mxGraphModel dx="1078" dy="475" grid="1" gridSize="10" guides="1" tooltips="1" connect="1" arrows="1" fold="1" page="1" pageScale="1" pageWidth="1100" pageHeight="850" background="none" math="0" shadow="0">
            <root>
                <mxCell id="0"/>
                <mxCell id="1" parent="0"/>
                <mxCell id="110" value="&lt;font style=&quot;font-size: 24px;&quot;&gt;Factory Method Design Pattern&lt;/font&gt;" style="text;html=1;strokeColor=#BD7000;fillColor=#f0a30a;align=center;verticalAlign=middle;whiteSpace=wrap;rounded=0;movable=0;resizable=0;rotatable=0;deletable=0;editable=0;connectable=0;fontColor=#000000;container=0;" parent="1" vertex="1">
                    <mxGeometry x="29" y="20" width="370" height="30" as="geometry"/>
                </mxCell>
                <mxCell id="140" value="&lt;div style=&quot;color: rgb(204, 204, 204); background-color: rgb(31, 31, 31); font-family: Consolas, &amp;quot;Courier New&amp;quot;, monospace; font-size: 14px; line-height: 19px;&quot;&gt;A Pattern that provides an interface for creating objects in a superclass,&lt;/div&gt;&lt;div style=&quot;color: rgb(204, 204, 204); background-color: rgb(31, 31, 31); font-family: Consolas, &amp;quot;Courier New&amp;quot;, monospace; font-size: 14px; line-height: 19px;&quot;&gt;but allows subclasses to alter the type of objects that will be created.&lt;/div&gt;" style="text;html=1;align=left;verticalAlign=middle;resizable=0;points=[];autosize=1;strokeColor=none;fillColor=none;" vertex="1" parent="1">
                    <mxGeometry x="40" y="70" width="590" height="50" as="geometry"/>
                </mxCell>
                <mxCell id="141" value="" style="group" vertex="1" connectable="0" parent="1">
                    <mxGeometry x="20" y="130" width="820" height="326" as="geometry"/>
                </mxCell>
                <mxCell id="98" value="Client" style="swimlane;fontStyle=1;align=center;verticalAlign=top;childLayout=stackLayout;horizontal=1;startSize=26;horizontalStack=0;resizeParent=1;resizeParentMax=0;resizeLast=0;collapsible=1;marginBottom=0;movable=1;resizable=1;rotatable=1;deletable=1;editable=1;connectable=1;container=0;" parent="141" vertex="1">
                    <mxGeometry x="20" y="60" width="160" height="34" as="geometry"/>
                </mxCell>
                <mxCell id="105" value="Use" style="endArrow=open;endSize=12;dashed=1;html=1;movable=1;resizable=1;rotatable=1;deletable=1;editable=1;connectable=1;" parent="141" edge="1">
                    <mxGeometry width="160" relative="1" as="geometry">
                        <mxPoint x="180" y="76.5" as="sourcePoint"/>
                        <mxPoint x="340" y="76.5" as="targetPoint"/>
                    </mxGeometry>
                </mxCell>
                <mxCell id="114" value="" style="endArrow=block;dashed=1;endFill=0;endSize=12;html=1;movable=1;resizable=1;rotatable=1;deletable=1;editable=1;connectable=1;" parent="141" edge="1">
                    <mxGeometry width="160" relative="1" as="geometry">
                        <mxPoint x="500" y="76.5" as="sourcePoint"/>
                        <mxPoint x="660" y="76.5" as="targetPoint"/>
                    </mxGeometry>
                </mxCell>
                <mxCell id="115" value="create" style="edgeLabel;html=1;align=center;verticalAlign=middle;resizable=1;points=[];movable=1;rotatable=1;deletable=1;editable=1;connectable=1;container=0;" parent="114" vertex="1" connectable="0">
                    <mxGeometry x="-0.2711" y="1" relative="1" as="geometry">
                        <mxPoint as="offset"/>
                    </mxGeometry>
                </mxCell>
                <mxCell id="75" value="ConcreteProduct" style="swimlane;fontStyle=1;align=center;verticalAlign=top;childLayout=stackLayout;horizontal=1;startSize=26;horizontalStack=0;resizeParent=1;resizeParentMax=0;resizeLast=0;collapsible=1;marginBottom=0;movable=1;resizable=1;rotatable=1;deletable=1;editable=1;connectable=1;container=0;" parent="141" vertex="1">
                    <mxGeometry x="660" y="240" width="160" height="86" as="geometry"/>
                </mxCell>
                <mxCell id="84" value="&lt;&lt;interface&gt;&gt;&#10;IProduct" style="swimlane;fontStyle=1;align=center;verticalAlign=top;childLayout=stackLayout;horizontal=1;startSize=40;horizontalStack=0;resizeParent=1;resizeParentMax=0;resizeLast=0;collapsible=1;marginBottom=0;fillColor=#60a917;fontColor=#ffffff;strokeColor=#2D7600;movable=1;resizable=1;rotatable=1;deletable=1;editable=1;connectable=1;container=0;" parent="141" vertex="1">
                    <mxGeometry x="660" y="40" width="160" height="100" as="geometry"/>
                </mxCell>
                <mxCell id="97" value="" style="endArrow=block;dashed=1;endFill=0;endSize=12;html=1;entryX=0.497;entryY=1.102;entryDx=0;entryDy=0;entryPerimeter=0;movable=1;resizable=1;rotatable=1;deletable=1;editable=1;connectable=1;" parent="141" target="87" edge="1">
                    <mxGeometry width="160" relative="1" as="geometry">
                        <mxPoint x="740" y="230" as="sourcePoint"/>
                        <mxPoint x="740" y="150" as="targetPoint"/>
                    </mxGeometry>
                </mxCell>
                <mxCell id="102" value="Implement" style="edgeLabel;html=1;align=center;verticalAlign=middle;resizable=1;points=[];movable=1;rotatable=1;deletable=1;editable=1;connectable=1;container=0;" parent="97" vertex="1" connectable="0">
                    <mxGeometry x="-0.1765" relative="1" as="geometry">
                        <mxPoint as="offset"/>
                    </mxGeometry>
                </mxCell>
                <mxCell id="116" value="&lt;font style=&quot;&quot;&gt;&lt;br&gt;&lt;br&gt;&lt;div style=&quot;font-size: 14px; text-align: left;&quot;&gt;&lt;span style=&quot;background-color: initial;&quot;&gt;&lt;font color=&quot;#66b2ff&quot;&gt;Creator creator = new ConcreateCreator();&lt;/font&gt;&lt;/span&gt;&lt;br&gt;&lt;/div&gt;&lt;div style=&quot;font-size: 14px; text-align: left;&quot;&gt;&lt;span style=&quot;background-color: initial;&quot;&gt;&lt;br&gt;&lt;/span&gt;&lt;/div&gt;&lt;span style=&quot;font-size: 14px;&quot;&gt;&lt;div style=&quot;text-align: left;&quot;&gt;&lt;span style=&quot;background-color: initial;&quot;&gt;&lt;font color=&quot;#33ff33&quot;&gt;IProduct p&lt;/font&gt;&lt;font color=&quot;#ffffff&quot;&gt; =&lt;/font&gt; &lt;font color=&quot;#66b2ff&quot;&gt;creator.CreateProduct();&lt;/font&gt;&lt;/span&gt;&lt;/div&gt;&lt;/span&gt;&lt;div style=&quot;text-align: left;&quot;&gt;&lt;br&gt;&lt;/div&gt;&lt;div style=&quot;text-align: left;&quot;&gt;&lt;br&gt;&lt;/div&gt;&lt;/font&gt;" style="text;strokeColor=none;align=center;fillColor=none;html=1;verticalAlign=middle;whiteSpace=wrap;rounded=0;fontColor=#FF66B3;movable=1;resizable=1;rotatable=1;deletable=1;editable=1;connectable=1;container=0;" parent="141" vertex="1">
                    <mxGeometry y="140" width="340" height="60" as="geometry"/>
                </mxCell>
                <mxCell id="130" value="Factory" style="text;html=1;align=center;verticalAlign=middle;resizable=1;points=[];autosize=1;strokeColor=none;fillColor=none;fontColor=#FFFFFF;movable=1;rotatable=1;deletable=1;editable=1;connectable=1;container=0;" parent="141" vertex="1">
                    <mxGeometry x="380" width="60" height="30" as="geometry"/>
                </mxCell>
                <mxCell id="100" value="" style="line;strokeWidth=1;fillColor=none;align=left;verticalAlign=middle;spacingTop=-1;spacingLeft=3;spacingRight=3;rotatable=1;labelPosition=right;points=[];portConstraint=eastwest;strokeColor=inherit;movable=1;resizable=1;deletable=1;editable=1;connectable=1;container=0;" parent="141" vertex="1">
                    <mxGeometry x="20" y="86" width="160" height="8" as="geometry"/>
                </mxCell>
                <mxCell id="88" value="&lt;&lt;abstract&gt;&gt;&#10;Creator" style="swimlane;fontStyle=1;align=center;verticalAlign=top;childLayout=stackLayout;horizontal=1;startSize=40;horizontalStack=0;resizeParent=1;resizeParentMax=0;resizeLast=0;collapsible=1;marginBottom=0;fillColor=#1ba1e2;fontColor=#ffffff;strokeColor=#FFFFFF;movable=1;resizable=1;rotatable=1;deletable=1;editable=1;connectable=1;container=0;" parent="141" vertex="1">
                    <mxGeometry x="340" y="40" width="170" height="78" as="geometry"/>
                </mxCell>
                <mxCell id="139" value="" style="line;strokeWidth=1;fillColor=none;align=left;verticalAlign=middle;spacingTop=-1;spacingLeft=3;spacingRight=3;rotatable=1;labelPosition=right;points=[];portConstraint=eastwest;strokeColor=inherit;movable=1;resizable=1;deletable=1;editable=1;connectable=1;container=0;" parent="88" vertex="1">
                    <mxGeometry y="40" width="170" height="8" as="geometry"/>
                </mxCell>
                <mxCell id="137" value="&lt;font color=&quot;#66b2ff&quot;&gt;+CreateProduct() :&lt;/font&gt; IProduct" style="text;html=1;align=center;verticalAlign=middle;resizable=1;points=[];autosize=1;strokeColor=none;fillColor=none;fontSize=12;fontColor=#33FF33;movable=1;rotatable=1;deletable=1;editable=1;connectable=1;" parent="88" vertex="1">
                    <mxGeometry y="48" width="170" height="30" as="geometry"/>
                </mxCell>
                <mxCell id="92" value="ConcreteCreator" style="swimlane;fontStyle=1;align=center;verticalAlign=top;childLayout=stackLayout;horizontal=1;startSize=26;horizontalStack=0;resizeParent=1;resizeParentMax=0;resizeLast=0;collapsible=1;marginBottom=0;movable=1;resizable=1;rotatable=1;deletable=1;editable=1;connectable=1;container=0;fontColor=#FFFFFF;" parent="141" vertex="1">
                    <mxGeometry x="335" y="240" width="170" height="56" as="geometry"/>
                </mxCell>
                <mxCell id="136" value="&lt;font color=&quot;#66b2ff&quot; style=&quot;font-size: 12px;&quot;&gt;+CreateProduct() : &lt;/font&gt;&lt;font color=&quot;#33ff33&quot; style=&quot;font-size: 12px;&quot;&gt;I&lt;font style=&quot;font-size: 12px;&quot;&gt;Product&lt;/font&gt;&lt;/font&gt;" style="text;html=1;align=center;verticalAlign=middle;resizable=1;points=[];autosize=1;strokeColor=none;fillColor=none;fontSize=14;fontColor=#FFFF66;movable=1;rotatable=1;deletable=1;editable=1;connectable=1;" parent="92" vertex="1">
                    <mxGeometry y="26" width="170" height="30" as="geometry"/>
                </mxCell>
                <mxCell id="96" value="Extends" style="endArrow=block;endSize=16;endFill=0;html=1;exitX=0.5;exitY=0;exitDx=0;exitDy=0;entryX=0.505;entryY=1.034;entryDx=0;entryDy=0;entryPerimeter=0;movable=1;resizable=1;rotatable=1;deletable=1;editable=1;connectable=1;" parent="141" source="92" edge="1">
                    <mxGeometry width="160" relative="1" as="geometry">
                        <mxPoint x="480" y="220" as="sourcePoint"/>
                        <mxPoint x="420.79999999999995" y="114.88400000000001" as="targetPoint"/>
                    </mxGeometry>
                </mxCell>
                <mxCell id="90" value="" style="line;strokeWidth=1;fillColor=none;align=left;verticalAlign=middle;spacingTop=-1;spacingLeft=3;spacingRight=3;rotatable=1;labelPosition=right;points=[];portConstraint=eastwest;strokeColor=inherit;movable=1;resizable=1;deletable=1;editable=1;connectable=1;container=0;" parent="141" vertex="1">
                    <mxGeometry x="340" y="80" width="160" height="8" as="geometry"/>
                </mxCell>
                <mxCell id="94" value="" style="line;strokeWidth=1;fillColor=none;align=left;verticalAlign=middle;spacingTop=-1;spacingLeft=3;spacingRight=3;rotatable=1;labelPosition=right;points=[];portConstraint=eastwest;strokeColor=inherit;movable=1;resizable=1;deletable=1;editable=1;connectable=1;container=0;" parent="141" vertex="1">
                    <mxGeometry x="340" y="266" width="160" height="8" as="geometry"/>
                </mxCell>
                <mxCell id="76" value="+ field: type" style="text;strokeColor=none;fillColor=none;align=left;verticalAlign=top;spacingLeft=4;spacingRight=4;overflow=hidden;rotatable=1;points=[[0,0.5],[1,0.5]];portConstraint=eastwest;movable=1;resizable=1;deletable=1;editable=1;connectable=1;container=0;" parent="141" vertex="1">
                    <mxGeometry x="660" y="266" width="160" height="26" as="geometry"/>
                </mxCell>
                <mxCell id="77" value="" style="line;strokeWidth=1;fillColor=none;align=left;verticalAlign=middle;spacingTop=-1;spacingLeft=3;spacingRight=3;rotatable=1;labelPosition=right;points=[];portConstraint=eastwest;strokeColor=inherit;movable=1;resizable=1;deletable=1;editable=1;connectable=1;container=0;" parent="141" vertex="1">
                    <mxGeometry x="660" y="292" width="160" height="8" as="geometry"/>
                </mxCell>
                <mxCell id="78" value="+GetName():void" style="text;strokeColor=none;fillColor=none;align=left;verticalAlign=top;spacingLeft=4;spacingRight=4;overflow=hidden;rotatable=1;points=[[0,0.5],[1,0.5]];portConstraint=eastwest;movable=1;resizable=1;deletable=1;editable=1;connectable=1;container=0;" parent="141" vertex="1">
                    <mxGeometry x="660" y="300" width="160" height="26" as="geometry"/>
                </mxCell>
                <mxCell id="85" value="+ field: type" style="text;strokeColor=none;fillColor=none;align=left;verticalAlign=top;spacingLeft=4;spacingRight=4;overflow=hidden;rotatable=1;points=[[0,0.5],[1,0.5]];portConstraint=eastwest;movable=1;resizable=1;deletable=1;editable=1;connectable=1;container=0;" parent="141" vertex="1">
                    <mxGeometry x="660" y="80" width="160" height="26" as="geometry"/>
                </mxCell>
                <mxCell id="86" value="" style="line;strokeWidth=1;fillColor=none;align=left;verticalAlign=middle;spacingTop=-1;spacingLeft=3;spacingRight=3;rotatable=1;labelPosition=right;points=[];portConstraint=eastwest;strokeColor=inherit;movable=1;resizable=1;deletable=1;editable=1;connectable=1;container=0;" parent="141" vertex="1">
                    <mxGeometry x="660" y="106" width="160" height="8" as="geometry"/>
                </mxCell>
                <mxCell id="87" value="+GetName():void" style="text;strokeColor=none;fillColor=none;align=left;verticalAlign=top;spacingLeft=4;spacingRight=4;overflow=hidden;rotatable=1;points=[[0,0.5],[1,0.5]];portConstraint=eastwest;movable=1;resizable=1;deletable=1;editable=1;connectable=1;container=0;" parent="141" vertex="1">
                    <mxGeometry x="660" y="114" width="160" height="26" as="geometry"/>
                </mxCell>
            </root>
        </mxGraphModel>
    </diagram>
</mxfile>